# xmcd
#
# Track frame offsets: 
#        150
#        22402
#        39260
#        57867
#        75092
#        96745
#        116787
#        135572
#        154917
#        172147
#        191815
#        208600
#
# Disc length: 3094 seconds
#
# Revision: 5
# Processed by: cddbd v1.5.2PL0 Copyright (c) Steve Scherf et al.
# Submitted via: ExactAudioCopy v1.0b3
#
DISCID=aa0c140c
DTITLE=Keith Sweat - Still In The Game
DYEAR=1998
DGENRE=R&B
TTITLE0=Come And Get With Me (Feat. Snoop Dogg)
TTITLE1=Rumors
TTITLE2=Can We Make Love
TTITLE3=Let Me Have My Way
TTITLE4=What Goes Around
TTITLE5=Love Jones (Feat. Playa, Too Short and Erick Sermon)
TTITLE6=Too Hot
TTITLE7=I'm Not Ready
TTITLE8=Show U What Love Is (Feat. Ol Skool)
TTITLE9=Just Another Day
TTITLE10=You Know I Like
TTITLE11=In Your Eyes
EXTD=YEAR: 1998
EXTT0=
EXTT1=
EXTT2=
EXTT3=
EXTT4=
EXTT5=
EXTT6=
EXTT7=
EXTT8=
EXTT9=
EXTT10=
EXTT11=
PLAYORDER=
